<svg width="577" height="111" viewBox="0 0 577 111" stroke="#2e0308" stroke-width="3" fill="none" stroke-linecap="round" xmlns="http://www.w3.org/2000/svg">

<!-- G -->

  <circle cx="55" cy="55" r="50" pathLength="100" stroke-dasharray="90 100"/>
  <line x1="65" y1="55" x2="105" y2="55"/>


<!-- E -->

  <circle cx="130" cy="15" r="10" pathLength="100" stroke-dasharray="25 100" transform="rotate(180 130 15)"/>
  <circle cx="130" cy="95" r="10" pathLength="100" stroke-dasharray="25 100" transform="rotate(90 130 95)"/>
  <line x1="120" y1="15" x2="120" y2="95" />
  <line x1="121" y1="55" x2="140" y2="55"/>
  <line x1="130" y1="5" x2="180" y2="5"/>
  <line x1="130" y1="105" x2="185" y2="105"/>
  

<!-- O -->

  <circle cx="235" cy="55" r="50"/>


<!-- R -->

<line x1="310" y1="5" x2="350" y2="5" />
 <line x1="300" y1="15" x2="300" y2="105"/>
  <circle cx="310" cy="15" r="10" pathLength="100" stroke-dasharray="25 100" transform="rotate(-180 310 15)"/>
  <circle cx="350" cy="35" r="30" pathLength="100" stroke-dasharray="50 100" transform="rotate(-90 350 35)"/>
  <line x1="300" y1="65" x2="350" y2="65"/>
  <line x1="350" y1="66" x2="380" y2="105"/>


<!-- G -->

  <circle cx="442" cy="55" r="50" pathLength="100" stroke-dasharray="90 100"/>
  <line x1="452" y1="55" x2="492" y2="55"/>


<!-- E -->

  <circle cx="517" cy="15" r="10" pathLength="100" stroke-dasharray="25 100" transform="rotate(180 517 15)"/>
  <circle cx="517" cy="95" r="10" pathLength="100" stroke-dasharray="25 100" transform="rotate(90 517 95)"/>
  <line x1="507" y1="15" x2="507" y2="95" />
  <line x1="508" y1="55" x2="527" y2="55"/>
  <line x1="517" y1="5" x2="567" y2="5"/>
  <line x1="517" y1="105" x2="572" y2="105"/>

</svg>

