<svg width="497" height="111" viewBox="0 0 497 111" stroke="#2e0308" stroke-width="3" fill="none" stroke-linecap="round" xmlns="http://www.w3.org/2000/svg">



<!-- L -->

  <line x1="5" y1="5" x2="5" y2="95"/>
  <circle cx="15" cy="95" r="10" pathLength="100" stroke-dasharray="25 100" transform="rotate(90 15 95)"/>
  <line x1="15" y1="105" x2="75" y2="105"/>


<!-- E -->

  <circle cx="100" cy="15" r="10" pathLength="100" stroke-dasharray="25 100" transform="rotate(180 100 15)"/>
  <circle cx="100" cy="95" r="10" pathLength="100" stroke-dasharray="25 100" transform="rotate(90 100 95)"/>
  <line x1="90" y1="15" x2="90" y2="95" />
  <line x1="91" y1="55" x2="110" y2="55"/>
  <line x1="100" y1="5" x2="150" y2="5"/>
  <line x1="100" y1="105" x2="155" y2="105"/>


<!-- F1 -->

  <line x1="180" y1="5" x2="235" y2="5"/>
  <line x1="170" y1="105" x2="170" y2="15"/>
  <circle cx="180" cy="15" r="10" pathLength ="100" stroke-dasharray="25 100" transform="rotate(-180 180 15)"/>
  <line x1="171" y1="55" x2="190" y2="55"/>


<!-- F2 -->

  <line x1="260" y1="5" x2="315" y2="5"/>
  <line x1="250" y1="15" x2="250" y2="105"/>
  <circle cx="260" cy="15" r="10" pathLength="100" stroke-dasharray="25 100" transform="rotate(-180 260 15)"/>
  <line x1="251" y1="55" x2="270" y2="55"/>


<!-- U -->

  <line x1="330" y1="5" x2="330" y2="65"/>
  <circle cx="370" cy="65" r="40" pathLength="100" stroke-dasharray="50 100"/>
  <line x1="410" y1="5" x2="410" y2="65"/>


<!-- E -->

  <circle cx="437" cy="15" r="10" pathLength="100" stroke-dasharray="25 100" transform="rotate(180 437 15)"/>
  <circle cx="437" cy="95" r="10" pathLength="100" stroke-dasharray="25 100" transform="rotate(90 437 95)"/>
  <line x1="427" y1="15" x2="427" y2="95" />
  <line x1="428" y1="55" x2="447" y2="55"/>
  <line x1="437" y1="5" x2="487" y2="5"/>
  <line x1="437" y1="105" x2="492" y2="105"/>

</svg>
